<mxfile host="app.diagrams.net" modified="2024-04-17T13:35:44.157Z" agent="Mozilla/5.0 (Windows NT 10.0; Win64; x64) AppleWebKit/537.36 (KHTML, like Gecko) Chrome/123.0.0.0 Safari/537.36" etag="P7YnU0Sv-fqDrJSGPOso" version="24.2.5" type="github">
  <diagram name="第 1 页" id="jECzerYtXaxOd9L4TEdg">
    <mxGraphModel dx="1300" dy="1817" grid="1" gridSize="10" guides="1" tooltips="1" connect="1" arrows="1" fold="1" page="1" pageScale="1" pageWidth="850" pageHeight="1100" math="0" shadow="0">
      <root>
        <mxCell id="0" />
        <mxCell id="1" parent="0" />
        <mxCell id="kSX3mIPr8DeNT0_oDLMB-21" value="" style="group" vertex="1" connectable="0" parent="1">
          <mxGeometry x="109.99999999999977" y="-200" width="440" height="720" as="geometry" />
        </mxCell>
        <mxCell id="kSX3mIPr8DeNT0_oDLMB-22" value="" style="group" vertex="1" connectable="0" parent="kSX3mIPr8DeNT0_oDLMB-21">
          <mxGeometry y="280" width="440" height="160" as="geometry" />
        </mxCell>
        <mxCell id="kSX3mIPr8DeNT0_oDLMB-23" value="" style="rounded=0;whiteSpace=wrap;html=1;fillColor=#d5e8d4;strokeColor=#000000;" vertex="1" parent="kSX3mIPr8DeNT0_oDLMB-22">
          <mxGeometry width="440" height="160" as="geometry" />
        </mxCell>
        <mxCell id="kSX3mIPr8DeNT0_oDLMB-24" value="" style="triangle;whiteSpace=wrap;html=1;fillColor=none;" vertex="1" parent="kSX3mIPr8DeNT0_oDLMB-22">
          <mxGeometry y="140" width="10" height="13.33" as="geometry" />
        </mxCell>
        <mxCell id="kSX3mIPr8DeNT0_oDLMB-25" value="&lt;font face=&quot;Comic Sans MS&quot; style=&quot;font-size: 20px;&quot;&gt;&lt;b&gt;&lt;u&gt;Module Name&lt;/u&gt;&lt;/b&gt;&lt;/font&gt;" style="text;align=center;html=1;verticalAlign=middle;whiteSpace=wrap;rounded=0;fontColor=#16a085;" vertex="1" parent="kSX3mIPr8DeNT0_oDLMB-22">
          <mxGeometry y="73.33333333333333" width="440" height="20" as="geometry" />
        </mxCell>
        <mxCell id="kSX3mIPr8DeNT0_oDLMB-26" value="" style="group" vertex="1" connectable="0" parent="kSX3mIPr8DeNT0_oDLMB-21">
          <mxGeometry x="2.2737367544323206e-13" y="80" width="80" height="200" as="geometry" />
        </mxCell>
        <mxCell id="kSX3mIPr8DeNT0_oDLMB-27" value="" style="edgeStyle=orthogonalEdgeStyle;fontSize=12;html=1;endArrow=blockThin;endFill=1;rounded=0;strokeWidth=2;endSize=4;startSize=4;strokeColor=#EA4335;dashed=0;" edge="1" parent="kSX3mIPr8DeNT0_oDLMB-26">
          <mxGeometry width="100" relative="1" as="geometry">
            <mxPoint x="40" as="sourcePoint" />
            <mxPoint x="40" y="200" as="targetPoint" />
          </mxGeometry>
        </mxCell>
        <mxCell id="kSX3mIPr8DeNT0_oDLMB-28" value="&lt;font face=&quot;Comic Sans MS&quot;&gt;&lt;b&gt;Control Signals&lt;/b&gt;&lt;/font&gt;" style="whiteSpace=wrap;html=1;fillColor=#f8cecc;strokeColor=#b85450;rotation=0;" vertex="1" parent="kSX3mIPr8DeNT0_oDLMB-26">
          <mxGeometry y="50" width="80" height="40" as="geometry" />
        </mxCell>
        <mxCell id="kSX3mIPr8DeNT0_oDLMB-29" value="" style="group" vertex="1" connectable="0" parent="kSX3mIPr8DeNT0_oDLMB-21">
          <mxGeometry x="120.00000000000023" width="40" height="280" as="geometry" />
        </mxCell>
        <mxCell id="kSX3mIPr8DeNT0_oDLMB-30" value="" style="endArrow=classic;html=1;rounded=0;strokeWidth=2;endSize=4;startSize=4;strokeColor=#9e9e9e;edgeStyle=orthogonalEdgeStyle;" edge="1" parent="kSX3mIPr8DeNT0_oDLMB-29">
          <mxGeometry width="50" height="50" relative="1" as="geometry">
            <mxPoint x="20" as="sourcePoint" />
            <mxPoint x="20" y="280" as="targetPoint" />
          </mxGeometry>
        </mxCell>
        <mxCell id="kSX3mIPr8DeNT0_oDLMB-31" value="Name" style="whiteSpace=wrap;html=1;strokeColor=#d6b656;fillColor=#fff2cc;fontFamily=Comic Sans MS;" vertex="1" parent="kSX3mIPr8DeNT0_oDLMB-29">
          <mxGeometry y="100" width="40" height="40" as="geometry" />
        </mxCell>
        <mxCell id="kSX3mIPr8DeNT0_oDLMB-32" value="" style="endArrow=none;html=1;rounded=0;" edge="1" parent="kSX3mIPr8DeNT0_oDLMB-29">
          <mxGeometry width="50" height="50" relative="1" as="geometry">
            <mxPoint y="180" as="sourcePoint" />
            <mxPoint x="40" y="140" as="targetPoint" />
          </mxGeometry>
        </mxCell>
        <mxCell id="kSX3mIPr8DeNT0_oDLMB-33" value="&lt;font face=&quot;Comic Sans MS&quot;&gt;wid&lt;/font&gt;" style="whiteSpace=wrap;html=1;strokeColor=#d6b656;fillColor=#fff2cc;" vertex="1" parent="kSX3mIPr8DeNT0_oDLMB-29">
          <mxGeometry x="20" y="160" width="20" height="20" as="geometry" />
        </mxCell>
        <mxCell id="kSX3mIPr8DeNT0_oDLMB-34" value="" style="group" vertex="1" connectable="0" parent="kSX3mIPr8DeNT0_oDLMB-21">
          <mxGeometry x="170.00000000000023" width="40" height="280" as="geometry" />
        </mxCell>
        <mxCell id="kSX3mIPr8DeNT0_oDLMB-35" value="" style="endArrow=classic;html=1;rounded=0;strokeWidth=2;endSize=4;startSize=4;strokeColor=#9e9e9e;edgeStyle=orthogonalEdgeStyle;" edge="1" parent="kSX3mIPr8DeNT0_oDLMB-34">
          <mxGeometry width="50" height="50" relative="1" as="geometry">
            <mxPoint x="20" as="sourcePoint" />
            <mxPoint x="20" y="280" as="targetPoint" />
          </mxGeometry>
        </mxCell>
        <mxCell id="kSX3mIPr8DeNT0_oDLMB-36" value="Name" style="whiteSpace=wrap;html=1;strokeColor=#d6b656;fillColor=#fff2cc;fontFamily=Comic Sans MS;" vertex="1" parent="kSX3mIPr8DeNT0_oDLMB-34">
          <mxGeometry y="100" width="40" height="40" as="geometry" />
        </mxCell>
        <mxCell id="kSX3mIPr8DeNT0_oDLMB-37" value="" style="endArrow=none;html=1;rounded=0;" edge="1" parent="kSX3mIPr8DeNT0_oDLMB-34">
          <mxGeometry width="50" height="50" relative="1" as="geometry">
            <mxPoint y="180" as="sourcePoint" />
            <mxPoint x="40" y="140" as="targetPoint" />
          </mxGeometry>
        </mxCell>
        <mxCell id="kSX3mIPr8DeNT0_oDLMB-38" value="&lt;font face=&quot;Comic Sans MS&quot;&gt;wid&lt;/font&gt;" style="whiteSpace=wrap;html=1;strokeColor=#d6b656;fillColor=#fff2cc;" vertex="1" parent="kSX3mIPr8DeNT0_oDLMB-34">
          <mxGeometry x="20" y="160" width="20" height="20" as="geometry" />
        </mxCell>
        <mxCell id="kSX3mIPr8DeNT0_oDLMB-39" value="" style="group" vertex="1" connectable="0" parent="kSX3mIPr8DeNT0_oDLMB-21">
          <mxGeometry x="220.00000000000023" width="40" height="280" as="geometry" />
        </mxCell>
        <mxCell id="kSX3mIPr8DeNT0_oDLMB-40" value="" style="endArrow=classic;html=1;rounded=0;strokeWidth=2;endSize=4;startSize=4;strokeColor=#9e9e9e;edgeStyle=orthogonalEdgeStyle;" edge="1" parent="kSX3mIPr8DeNT0_oDLMB-39">
          <mxGeometry width="50" height="50" relative="1" as="geometry">
            <mxPoint x="20" as="sourcePoint" />
            <mxPoint x="20" y="280" as="targetPoint" />
          </mxGeometry>
        </mxCell>
        <mxCell id="kSX3mIPr8DeNT0_oDLMB-41" value="Name" style="whiteSpace=wrap;html=1;strokeColor=#d6b656;fillColor=#fff2cc;fontFamily=Comic Sans MS;" vertex="1" parent="kSX3mIPr8DeNT0_oDLMB-39">
          <mxGeometry y="100" width="40" height="40" as="geometry" />
        </mxCell>
        <mxCell id="kSX3mIPr8DeNT0_oDLMB-42" value="" style="endArrow=none;html=1;rounded=0;" edge="1" parent="kSX3mIPr8DeNT0_oDLMB-39">
          <mxGeometry width="50" height="50" relative="1" as="geometry">
            <mxPoint y="180" as="sourcePoint" />
            <mxPoint x="40" y="140" as="targetPoint" />
          </mxGeometry>
        </mxCell>
        <mxCell id="kSX3mIPr8DeNT0_oDLMB-43" value="&lt;font face=&quot;Comic Sans MS&quot;&gt;wid&lt;/font&gt;" style="whiteSpace=wrap;html=1;strokeColor=#d6b656;fillColor=#fff2cc;" vertex="1" parent="kSX3mIPr8DeNT0_oDLMB-39">
          <mxGeometry x="20" y="160" width="20" height="20" as="geometry" />
        </mxCell>
        <mxCell id="kSX3mIPr8DeNT0_oDLMB-44" value="" style="group" vertex="1" connectable="0" parent="kSX3mIPr8DeNT0_oDLMB-21">
          <mxGeometry x="270.0000000000002" width="40" height="280" as="geometry" />
        </mxCell>
        <mxCell id="kSX3mIPr8DeNT0_oDLMB-45" value="" style="endArrow=classic;html=1;rounded=0;strokeWidth=2;endSize=4;startSize=4;strokeColor=#9e9e9e;edgeStyle=orthogonalEdgeStyle;" edge="1" parent="kSX3mIPr8DeNT0_oDLMB-44">
          <mxGeometry width="50" height="50" relative="1" as="geometry">
            <mxPoint x="20" as="sourcePoint" />
            <mxPoint x="20" y="280" as="targetPoint" />
          </mxGeometry>
        </mxCell>
        <mxCell id="kSX3mIPr8DeNT0_oDLMB-46" value="Name" style="whiteSpace=wrap;html=1;strokeColor=#d6b656;fillColor=#fff2cc;fontFamily=Comic Sans MS;" vertex="1" parent="kSX3mIPr8DeNT0_oDLMB-44">
          <mxGeometry y="100" width="40" height="40" as="geometry" />
        </mxCell>
        <mxCell id="kSX3mIPr8DeNT0_oDLMB-47" value="" style="endArrow=none;html=1;rounded=0;" edge="1" parent="kSX3mIPr8DeNT0_oDLMB-44">
          <mxGeometry width="50" height="50" relative="1" as="geometry">
            <mxPoint y="180" as="sourcePoint" />
            <mxPoint x="40" y="140" as="targetPoint" />
          </mxGeometry>
        </mxCell>
        <mxCell id="kSX3mIPr8DeNT0_oDLMB-48" value="&lt;font face=&quot;Comic Sans MS&quot;&gt;wid&lt;/font&gt;" style="whiteSpace=wrap;html=1;strokeColor=#d6b656;fillColor=#fff2cc;" vertex="1" parent="kSX3mIPr8DeNT0_oDLMB-44">
          <mxGeometry x="20" y="160" width="20" height="20" as="geometry" />
        </mxCell>
        <mxCell id="kSX3mIPr8DeNT0_oDLMB-49" value="" style="group" vertex="1" connectable="0" parent="kSX3mIPr8DeNT0_oDLMB-21">
          <mxGeometry x="320.0000000000002" width="40" height="280" as="geometry" />
        </mxCell>
        <mxCell id="kSX3mIPr8DeNT0_oDLMB-50" value="" style="endArrow=classic;html=1;rounded=0;strokeWidth=2;endSize=4;startSize=4;strokeColor=#9e9e9e;edgeStyle=orthogonalEdgeStyle;" edge="1" parent="kSX3mIPr8DeNT0_oDLMB-49">
          <mxGeometry width="50" height="50" relative="1" as="geometry">
            <mxPoint x="20" as="sourcePoint" />
            <mxPoint x="20" y="280" as="targetPoint" />
          </mxGeometry>
        </mxCell>
        <mxCell id="kSX3mIPr8DeNT0_oDLMB-51" value="Name" style="whiteSpace=wrap;html=1;strokeColor=#d6b656;fillColor=#fff2cc;fontFamily=Comic Sans MS;" vertex="1" parent="kSX3mIPr8DeNT0_oDLMB-49">
          <mxGeometry y="100" width="40" height="40" as="geometry" />
        </mxCell>
        <mxCell id="kSX3mIPr8DeNT0_oDLMB-52" value="" style="endArrow=none;html=1;rounded=0;" edge="1" parent="kSX3mIPr8DeNT0_oDLMB-49">
          <mxGeometry width="50" height="50" relative="1" as="geometry">
            <mxPoint y="180" as="sourcePoint" />
            <mxPoint x="40" y="140" as="targetPoint" />
          </mxGeometry>
        </mxCell>
        <mxCell id="kSX3mIPr8DeNT0_oDLMB-53" value="&lt;font face=&quot;Comic Sans MS&quot;&gt;wid&lt;/font&gt;" style="whiteSpace=wrap;html=1;strokeColor=#d6b656;fillColor=#fff2cc;" vertex="1" parent="kSX3mIPr8DeNT0_oDLMB-49">
          <mxGeometry x="20" y="160" width="20" height="20" as="geometry" />
        </mxCell>
        <mxCell id="kSX3mIPr8DeNT0_oDLMB-54" value="" style="group" vertex="1" connectable="0" parent="kSX3mIPr8DeNT0_oDLMB-21">
          <mxGeometry x="360" width="80" height="280" as="geometry" />
        </mxCell>
        <mxCell id="kSX3mIPr8DeNT0_oDLMB-55" value="" style="endArrow=classic;html=1;rounded=0;strokeWidth=2;endSize=4;startSize=4;strokeColor=#9e9e9e;edgeStyle=orthogonalEdgeStyle;" edge="1" parent="kSX3mIPr8DeNT0_oDLMB-54">
          <mxGeometry width="50" height="50" relative="1" as="geometry">
            <mxPoint x="40" as="sourcePoint" />
            <mxPoint x="40" y="280" as="targetPoint" />
          </mxGeometry>
        </mxCell>
        <mxCell id="kSX3mIPr8DeNT0_oDLMB-56" value="Name" style="whiteSpace=wrap;html=1;strokeColor=#d6b656;fillColor=#fff2cc;fontFamily=Comic Sans MS;" vertex="1" parent="kSX3mIPr8DeNT0_oDLMB-54">
          <mxGeometry x="20" y="116.66666666666667" width="40" height="46.66666666666667" as="geometry" />
        </mxCell>
        <mxCell id="kSX3mIPr8DeNT0_oDLMB-57" value="" style="group" vertex="1" connectable="0" parent="kSX3mIPr8DeNT0_oDLMB-21">
          <mxGeometry x="2.2737367544323206e-13" y="440" width="80" height="200" as="geometry" />
        </mxCell>
        <mxCell id="kSX3mIPr8DeNT0_oDLMB-58" value="" style="edgeStyle=orthogonalEdgeStyle;fontSize=12;html=1;endArrow=blockThin;endFill=1;rounded=0;strokeWidth=2;endSize=4;startSize=4;strokeColor=#EA4335;dashed=0;" edge="1" parent="kSX3mIPr8DeNT0_oDLMB-57">
          <mxGeometry width="100" relative="1" as="geometry">
            <mxPoint x="40" as="sourcePoint" />
            <mxPoint x="40" y="200" as="targetPoint" />
          </mxGeometry>
        </mxCell>
        <mxCell id="kSX3mIPr8DeNT0_oDLMB-59" value="&lt;font face=&quot;Comic Sans MS&quot;&gt;&lt;b&gt;Control Signals&lt;/b&gt;&lt;/font&gt;" style="whiteSpace=wrap;html=1;fillColor=#f8cecc;strokeColor=#b85450;rotation=0;" vertex="1" parent="kSX3mIPr8DeNT0_oDLMB-57">
          <mxGeometry y="50" width="80" height="40" as="geometry" />
        </mxCell>
        <mxCell id="kSX3mIPr8DeNT0_oDLMB-60" value="" style="group" vertex="1" connectable="0" parent="kSX3mIPr8DeNT0_oDLMB-21">
          <mxGeometry x="120.00000000000023" y="440" width="40" height="280" as="geometry" />
        </mxCell>
        <mxCell id="kSX3mIPr8DeNT0_oDLMB-61" value="" style="endArrow=classic;html=1;rounded=0;strokeWidth=2;endSize=4;startSize=4;strokeColor=#9e9e9e;edgeStyle=orthogonalEdgeStyle;" edge="1" parent="kSX3mIPr8DeNT0_oDLMB-60">
          <mxGeometry width="50" height="50" relative="1" as="geometry">
            <mxPoint x="20" as="sourcePoint" />
            <mxPoint x="20" y="280" as="targetPoint" />
          </mxGeometry>
        </mxCell>
        <mxCell id="kSX3mIPr8DeNT0_oDLMB-62" value="Name" style="whiteSpace=wrap;html=1;strokeColor=#d6b656;fillColor=#fff2cc;fontFamily=Comic Sans MS;" vertex="1" parent="kSX3mIPr8DeNT0_oDLMB-60">
          <mxGeometry y="100" width="40" height="40" as="geometry" />
        </mxCell>
        <mxCell id="kSX3mIPr8DeNT0_oDLMB-63" value="" style="endArrow=none;html=1;rounded=0;" edge="1" parent="kSX3mIPr8DeNT0_oDLMB-60">
          <mxGeometry width="50" height="50" relative="1" as="geometry">
            <mxPoint y="180" as="sourcePoint" />
            <mxPoint x="40" y="140" as="targetPoint" />
          </mxGeometry>
        </mxCell>
        <mxCell id="kSX3mIPr8DeNT0_oDLMB-64" value="&lt;font face=&quot;Comic Sans MS&quot;&gt;wid&lt;/font&gt;" style="whiteSpace=wrap;html=1;strokeColor=#d6b656;fillColor=#fff2cc;" vertex="1" parent="kSX3mIPr8DeNT0_oDLMB-60">
          <mxGeometry x="20" y="160" width="20" height="20" as="geometry" />
        </mxCell>
        <mxCell id="kSX3mIPr8DeNT0_oDLMB-65" value="" style="group" vertex="1" connectable="0" parent="kSX3mIPr8DeNT0_oDLMB-21">
          <mxGeometry x="170.00000000000023" y="440" width="40" height="280" as="geometry" />
        </mxCell>
        <mxCell id="kSX3mIPr8DeNT0_oDLMB-66" value="" style="endArrow=classic;html=1;rounded=0;strokeWidth=2;endSize=4;startSize=4;strokeColor=#9e9e9e;edgeStyle=orthogonalEdgeStyle;" edge="1" parent="kSX3mIPr8DeNT0_oDLMB-65">
          <mxGeometry width="50" height="50" relative="1" as="geometry">
            <mxPoint x="20" as="sourcePoint" />
            <mxPoint x="20" y="280" as="targetPoint" />
          </mxGeometry>
        </mxCell>
        <mxCell id="kSX3mIPr8DeNT0_oDLMB-67" value="Name" style="whiteSpace=wrap;html=1;strokeColor=#d6b656;fillColor=#fff2cc;fontFamily=Comic Sans MS;" vertex="1" parent="kSX3mIPr8DeNT0_oDLMB-65">
          <mxGeometry y="100" width="40" height="40" as="geometry" />
        </mxCell>
        <mxCell id="kSX3mIPr8DeNT0_oDLMB-68" value="" style="endArrow=none;html=1;rounded=0;" edge="1" parent="kSX3mIPr8DeNT0_oDLMB-65">
          <mxGeometry width="50" height="50" relative="1" as="geometry">
            <mxPoint y="180" as="sourcePoint" />
            <mxPoint x="40" y="140" as="targetPoint" />
          </mxGeometry>
        </mxCell>
        <mxCell id="kSX3mIPr8DeNT0_oDLMB-69" value="&lt;font face=&quot;Comic Sans MS&quot;&gt;wid&lt;/font&gt;" style="whiteSpace=wrap;html=1;strokeColor=#d6b656;fillColor=#fff2cc;" vertex="1" parent="kSX3mIPr8DeNT0_oDLMB-65">
          <mxGeometry x="20" y="160" width="20" height="20" as="geometry" />
        </mxCell>
        <mxCell id="kSX3mIPr8DeNT0_oDLMB-70" value="" style="group" vertex="1" connectable="0" parent="kSX3mIPr8DeNT0_oDLMB-21">
          <mxGeometry x="220.00000000000023" y="440" width="40" height="280" as="geometry" />
        </mxCell>
        <mxCell id="kSX3mIPr8DeNT0_oDLMB-71" value="" style="endArrow=classic;html=1;rounded=0;strokeWidth=2;endSize=4;startSize=4;strokeColor=#9e9e9e;edgeStyle=orthogonalEdgeStyle;" edge="1" parent="kSX3mIPr8DeNT0_oDLMB-70">
          <mxGeometry width="50" height="50" relative="1" as="geometry">
            <mxPoint x="20" as="sourcePoint" />
            <mxPoint x="20" y="280" as="targetPoint" />
          </mxGeometry>
        </mxCell>
        <mxCell id="kSX3mIPr8DeNT0_oDLMB-72" value="Name" style="whiteSpace=wrap;html=1;strokeColor=#d6b656;fillColor=#fff2cc;fontFamily=Comic Sans MS;" vertex="1" parent="kSX3mIPr8DeNT0_oDLMB-70">
          <mxGeometry y="100" width="40" height="40" as="geometry" />
        </mxCell>
        <mxCell id="kSX3mIPr8DeNT0_oDLMB-73" value="" style="endArrow=none;html=1;rounded=0;" edge="1" parent="kSX3mIPr8DeNT0_oDLMB-70">
          <mxGeometry width="50" height="50" relative="1" as="geometry">
            <mxPoint y="180" as="sourcePoint" />
            <mxPoint x="40" y="140" as="targetPoint" />
          </mxGeometry>
        </mxCell>
        <mxCell id="kSX3mIPr8DeNT0_oDLMB-74" value="&lt;font face=&quot;Comic Sans MS&quot;&gt;wid&lt;/font&gt;" style="whiteSpace=wrap;html=1;strokeColor=#d6b656;fillColor=#fff2cc;" vertex="1" parent="kSX3mIPr8DeNT0_oDLMB-70">
          <mxGeometry x="20" y="160" width="20" height="20" as="geometry" />
        </mxCell>
        <mxCell id="kSX3mIPr8DeNT0_oDLMB-75" value="" style="group" vertex="1" connectable="0" parent="kSX3mIPr8DeNT0_oDLMB-21">
          <mxGeometry x="270.0000000000002" y="440" width="40" height="280" as="geometry" />
        </mxCell>
        <mxCell id="kSX3mIPr8DeNT0_oDLMB-76" value="" style="endArrow=classic;html=1;rounded=0;strokeWidth=2;endSize=4;startSize=4;strokeColor=#9e9e9e;edgeStyle=orthogonalEdgeStyle;" edge="1" parent="kSX3mIPr8DeNT0_oDLMB-75">
          <mxGeometry width="50" height="50" relative="1" as="geometry">
            <mxPoint x="20" as="sourcePoint" />
            <mxPoint x="20" y="280" as="targetPoint" />
          </mxGeometry>
        </mxCell>
        <mxCell id="kSX3mIPr8DeNT0_oDLMB-77" value="Name" style="whiteSpace=wrap;html=1;strokeColor=#d6b656;fillColor=#fff2cc;fontFamily=Comic Sans MS;" vertex="1" parent="kSX3mIPr8DeNT0_oDLMB-75">
          <mxGeometry y="100" width="40" height="40" as="geometry" />
        </mxCell>
        <mxCell id="kSX3mIPr8DeNT0_oDLMB-78" value="" style="endArrow=none;html=1;rounded=0;" edge="1" parent="kSX3mIPr8DeNT0_oDLMB-75">
          <mxGeometry width="50" height="50" relative="1" as="geometry">
            <mxPoint y="180" as="sourcePoint" />
            <mxPoint x="40" y="140" as="targetPoint" />
          </mxGeometry>
        </mxCell>
        <mxCell id="kSX3mIPr8DeNT0_oDLMB-79" value="&lt;font face=&quot;Comic Sans MS&quot;&gt;wid&lt;/font&gt;" style="whiteSpace=wrap;html=1;strokeColor=#d6b656;fillColor=#fff2cc;" vertex="1" parent="kSX3mIPr8DeNT0_oDLMB-75">
          <mxGeometry x="20" y="160" width="20" height="20" as="geometry" />
        </mxCell>
        <mxCell id="kSX3mIPr8DeNT0_oDLMB-80" value="" style="group" vertex="1" connectable="0" parent="kSX3mIPr8DeNT0_oDLMB-21">
          <mxGeometry x="320.0000000000002" y="440" width="40" height="280" as="geometry" />
        </mxCell>
        <mxCell id="kSX3mIPr8DeNT0_oDLMB-81" value="" style="endArrow=classic;html=1;rounded=0;strokeWidth=2;endSize=4;startSize=4;strokeColor=#9e9e9e;edgeStyle=orthogonalEdgeStyle;" edge="1" parent="kSX3mIPr8DeNT0_oDLMB-80">
          <mxGeometry width="50" height="50" relative="1" as="geometry">
            <mxPoint x="20" as="sourcePoint" />
            <mxPoint x="20" y="280" as="targetPoint" />
          </mxGeometry>
        </mxCell>
        <mxCell id="kSX3mIPr8DeNT0_oDLMB-82" value="Name" style="whiteSpace=wrap;html=1;strokeColor=#d6b656;fillColor=#fff2cc;fontFamily=Comic Sans MS;" vertex="1" parent="kSX3mIPr8DeNT0_oDLMB-80">
          <mxGeometry y="100" width="40" height="40" as="geometry" />
        </mxCell>
        <mxCell id="kSX3mIPr8DeNT0_oDLMB-83" value="" style="endArrow=none;html=1;rounded=0;" edge="1" parent="kSX3mIPr8DeNT0_oDLMB-80">
          <mxGeometry width="50" height="50" relative="1" as="geometry">
            <mxPoint y="180" as="sourcePoint" />
            <mxPoint x="40" y="140" as="targetPoint" />
          </mxGeometry>
        </mxCell>
        <mxCell id="kSX3mIPr8DeNT0_oDLMB-84" value="&lt;font face=&quot;Comic Sans MS&quot;&gt;wid&lt;/font&gt;" style="whiteSpace=wrap;html=1;strokeColor=#d6b656;fillColor=#fff2cc;" vertex="1" parent="kSX3mIPr8DeNT0_oDLMB-80">
          <mxGeometry x="20" y="160" width="20" height="20" as="geometry" />
        </mxCell>
        <mxCell id="kSX3mIPr8DeNT0_oDLMB-85" value="" style="group" vertex="1" connectable="0" parent="kSX3mIPr8DeNT0_oDLMB-21">
          <mxGeometry x="360" y="440" width="80" height="280" as="geometry" />
        </mxCell>
        <mxCell id="kSX3mIPr8DeNT0_oDLMB-86" value="" style="endArrow=classic;html=1;rounded=0;strokeWidth=2;endSize=4;startSize=4;strokeColor=#9e9e9e;edgeStyle=orthogonalEdgeStyle;" edge="1" parent="kSX3mIPr8DeNT0_oDLMB-85">
          <mxGeometry width="50" height="50" relative="1" as="geometry">
            <mxPoint x="40" as="sourcePoint" />
            <mxPoint x="40" y="280" as="targetPoint" />
          </mxGeometry>
        </mxCell>
        <mxCell id="kSX3mIPr8DeNT0_oDLMB-87" value="Name" style="whiteSpace=wrap;html=1;strokeColor=#d6b656;fillColor=#fff2cc;fontFamily=Comic Sans MS;" vertex="1" parent="kSX3mIPr8DeNT0_oDLMB-85">
          <mxGeometry x="20" y="116.66666666666667" width="40" height="46.66666666666667" as="geometry" />
        </mxCell>
      </root>
    </mxGraphModel>
  </diagram>
</mxfile>
